# xmcd
#
# Track frame offsets:
#	150
#	15907
#	30810
#	44119
#	65972
#	84100
#	101251
#	110056
#	132124
#	145039
#	158785
#	185399
#	198621
#	215855
#	231876
#
# Disc length: 3293 seconds
#
# Revision: 1
# Processed by: cddbd v1.4PL0 Copyright (c) Steve Scherf et al.
# Submitted via: audiograbber 1.81.02
#
DISCID=cb0cdb0f
DTITLE=Erwin Helfer - I'm Not Hungry But I Like To Eat
DYEAR=2001
DGENRE=Piano Blues Boogie
TTITLE0=Swanee River Boogie
TTITLE1=Please Send Me Someone to Love
TTITLE2=Dirty Dozens
TTITLE3=Sweet Substitute
TTITLE4=The Sheik of Araby
TTITLE5=Do You Know What It Means to Miss New Orleans
TTITLE6=Homage to Pete Johnson
TTITLE7=Nobody Knows You When You're Down And Out
TTITLE8=See See Rider
TTITLE9=In A Sentimental Mood
TTITLE10=Stella
TTITLE11=Pooch Piddle
TTITLE12=I'm Not Hungry But I Like to Eat - Blues
TTITLE13=After Hours
TTITLE14=Day Dreaming
EXTD=
EXTT0=by Pete Johnson
EXTT1=by Percy Mayfield
EXTT2=by Rufus Perryman
EXTT3=by Ferdinand Joseph (Jelly Roll) Morton
EXTT4=by Harry Smith, Ted Snyder, and Francis Wheeler
EXTT5=by Louis Alter and Edgar DeLange
EXTT6=by Erwin Helfer
EXTT7=by Jimmie Cox
EXTT8=by Ma Rainey
EXTT9=by Edward Kennedy (Duke) Ellington
EXTT10=by Erwin Helfer
EXTT11=by Erwin Helfer
EXTT12=by Erwin Helfer
EXTT13=by Rober Bruce, Buddy Feyne, and Avery \nParrish
EXTT14=by Erwin Helfer
PLAYORDER=
